<svg width="72" height="72" viewBox="0 0 72 72" fill="none" xmlns="http://www.w3.org/2000/svg">
<circle cx="36" cy="36" r="36" fill="#72B3EA"/>
<path d="M36.4444 55.2445C33.8311 55.2445 31.3851 54.7556 29.1066 53.7779C26.8281 52.8001 24.837 51.4593 23.1333 49.7556C21.4296 48.0519 20.0889 46.0608 19.1111 43.7824C18.1333 41.5039 17.6444 39.0579 17.6444 36.4445C17.6444 33.8371 18.1333 31.3927 19.1111 29.1112C20.0889 26.8297 21.4296 24.8371 23.1333 23.1334C24.837 21.4297 26.8281 20.089 29.1066 19.1112C31.3851 18.1334 33.8311 17.6445 36.4444 17.6445C39.0519 17.6445 41.4963 18.1334 43.7778 19.1112C46.0593 20.089 48.0519 21.4297 49.7556 23.1334C51.4593 24.8371 52.8 26.8297 53.7778 29.1112C54.7556 31.3927 55.2444 33.8432 55.2444 36.4628V38.8001C55.2444 40.726 54.6 42.2742 53.3111 43.4445C52.0222 44.6149 50.4 45.2001 48.4444 45.2001C47.2623 45.2001 46.1742 44.9186 45.18 44.3556C44.1859 43.7927 43.4519 43.0223 42.9778 42.0445C42.2667 43.1408 41.3407 43.9408 40.2 44.4445C39.0593 44.9482 37.8074 45.2001 36.4444 45.2001C34.0047 45.2001 31.9282 44.3561 30.2147 42.6683C28.5012 40.9804 27.6444 38.8989 27.6444 36.4238C27.6444 33.9784 28.5002 31.8964 30.2116 30.1779C31.9229 28.4593 33.997 27.6001 36.4338 27.6001C38.9002 27.6001 40.9852 28.4519 42.6889 30.1556C44.3926 31.8593 45.2444 33.9556 45.2444 36.4445V38.486C45.2444 39.3443 45.5556 40.0705 46.1778 40.6645C46.8 41.2586 47.5556 41.5556 48.4444 41.5556C49.3037 41.5556 50.037 41.2586 50.6444 40.6645C51.2519 40.0705 51.5556 39.3443 51.5556 38.486V36.4445C51.5556 32.2075 50.0963 28.6297 47.1778 25.7112C44.2593 22.7927 40.6741 21.3334 36.4222 21.3334C32.2296 21.3334 28.6667 22.8001 25.7333 25.7334C22.8 28.6668 21.3333 32.2371 21.3333 36.4445C21.3333 40.6816 22.7926 44.2593 25.7111 47.1779C28.6296 50.0964 32.2074 51.5556 36.4444 51.5556H44.1333C44.6459 51.5556 45.0778 51.7333 45.4289 52.0886C45.78 52.4439 45.9556 52.8809 45.9556 53.3997C45.9556 53.9185 45.78 54.3556 45.4289 54.7112C45.0778 55.0668 44.6459 55.2445 44.1333 55.2445H36.4444ZM36.4549 41.5556C37.8702 41.5556 39.0815 41.0589 40.0889 40.0655C41.0963 39.072 41.6 37.872 41.6 36.4655C41.6 35.0293 41.0928 33.8001 40.0784 32.7779C39.064 31.7556 37.8492 31.2445 36.434 31.2445C35.0187 31.2445 33.8074 31.7556 32.8 32.7779C31.7926 33.8001 31.2889 35.0293 31.2889 36.4655C31.2889 37.872 31.7961 39.072 32.8104 40.0655C33.8248 41.0589 35.0397 41.5556 36.4549 41.5556Z" fill="white"/>
</svg>
