<svg width="72" height="72" viewBox="0 0 72 72" fill="none" xmlns="http://www.w3.org/2000/svg">
<circle cx="36" cy="36" r="36" fill="#72B3EA"/>
<path d="M27.1556 57.0223C25.9985 57.0223 25.013 56.6153 24.1989 55.8014C23.3848 54.9871 22.9778 54.0015 22.9778 52.8445V20.0445C22.9778 18.8874 23.3848 17.9019 24.1989 17.0878C25.013 16.2737 25.9985 15.8667 27.1556 15.8667H45.7333C46.8904 15.8667 47.8759 16.2737 48.69 17.0878C49.5041 17.9019 49.9111 18.8874 49.9111 20.0445V52.8445C49.9111 54.0015 49.5041 54.9871 48.69 55.8014C47.8759 56.6153 46.8904 57.0223 45.7333 57.0223H27.1556ZM27.1556 48.8445H45.7333V24.0445H27.1556V48.8445Z" fill="white"/>
</svg>
