<svg width="90" height="18" viewBox="0 0 90 18" fill="none" xmlns="http://www.w3.org/2000/svg">
<path d="M9 13.7063L5.51251 15.8063C5.4125 15.8688 5.30625 15.897 5.19375 15.8907C5.08125 15.8845 4.98126 15.8501 4.89375 15.7876C4.80626 15.7251 4.74063 15.6438 4.69688 15.5438C4.65313 15.4438 4.64376 15.3313 4.66876 15.2063L5.5875 11.2313L2.51251 8.5501C2.41251 8.4626 2.35313 8.36572 2.33438 8.25947C2.31563 8.15322 2.31876 8.0501 2.34376 7.9501C2.36876 7.8501 2.42501 7.76572 2.51251 7.69697C2.60001 7.62822 2.70626 7.5876 2.83126 7.5751L6.9 7.21885L8.475 3.46885C8.525 3.35635 8.6 3.27197 8.7 3.21572C8.8 3.15947 8.9 3.13135 9 3.13135C9.1 3.13135 9.2 3.15947 9.3 3.21572C9.4 3.27197 9.475 3.35635 9.525 3.46885L11.1 7.21885L15.1688 7.5751C15.2938 7.5876 15.4 7.62822 15.4875 7.69697C15.575 7.76572 15.6313 7.8501 15.6563 7.9501C15.6813 8.0501 15.6844 8.15322 15.6656 8.25947C15.6469 8.36572 15.5875 8.4626 15.4875 8.5501L12.4125 11.2313L13.3313 15.2063C13.3563 15.3313 13.3469 15.4438 13.3031 15.5438C13.2594 15.6438 13.1938 15.7251 13.1063 15.7876C13.0188 15.8501 12.9188 15.8845 12.8063 15.8907C12.6938 15.897 12.5875 15.8688 12.4875 15.8063L9 13.7063Z" fill="#72B3EA"/>
<path d="M27 13.7063L23.5125 15.8063C23.4125 15.8688 23.3063 15.897 23.1938 15.8907C23.0813 15.8845 22.9813 15.8501 22.8938 15.7876C22.8063 15.7251 22.7406 15.6438 22.6969 15.5438C22.6531 15.4438 22.6438 15.3313 22.6688 15.2063L23.5875 11.2313L20.5125 8.5501C20.4125 8.4626 20.3531 8.36572 20.3344 8.25947C20.3156 8.15322 20.3188 8.0501 20.3438 7.9501C20.3688 7.8501 20.425 7.76572 20.5125 7.69697C20.6 7.62822 20.7063 7.5876 20.8313 7.5751L24.9 7.21885L26.475 3.46885C26.525 3.35635 26.6 3.27197 26.7 3.21572C26.8 3.15947 26.9 3.13135 27 3.13135C27.1 3.13135 27.2 3.15947 27.3 3.21572C27.4 3.27197 27.475 3.35635 27.525 3.46885L29.1 7.21885L33.1688 7.5751C33.2938 7.5876 33.4 7.62822 33.4875 7.69697C33.575 7.76572 33.6313 7.8501 33.6563 7.9501C33.6813 8.0501 33.6844 8.15322 33.6656 8.25947C33.6469 8.36572 33.5875 8.4626 33.4875 8.5501L30.4125 11.2313L31.3313 15.2063C31.3563 15.3313 31.3469 15.4438 31.3031 15.5438C31.2594 15.6438 31.1938 15.7251 31.1063 15.7876C31.0188 15.8501 30.9188 15.8845 30.8063 15.8907C30.6938 15.897 30.5875 15.8688 30.4875 15.8063L27 13.7063Z" fill="#72B3EA"/>
<path d="M45 13.7063L41.5125 15.8063C41.4125 15.8688 41.3063 15.897 41.1938 15.8907C41.0813 15.8845 40.9813 15.8501 40.8938 15.7876C40.8063 15.7251 40.7406 15.6438 40.6969 15.5438C40.6531 15.4438 40.6438 15.3313 40.6688 15.2063L41.5875 11.2313L38.5125 8.5501C38.4125 8.4626 38.3531 8.36572 38.3344 8.25947C38.3156 8.15322 38.3188 8.0501 38.3438 7.9501C38.3688 7.8501 38.425 7.76572 38.5125 7.69697C38.6 7.62822 38.7063 7.5876 38.8313 7.5751L42.9 7.21885L44.475 3.46885C44.525 3.35635 44.6 3.27197 44.7 3.21572C44.8 3.15947 44.9 3.13135 45 3.13135C45.1 3.13135 45.2 3.15947 45.3 3.21572C45.4 3.27197 45.475 3.35635 45.525 3.46885L47.1 7.21885L51.1688 7.5751C51.2938 7.5876 51.4 7.62822 51.4875 7.69697C51.575 7.76572 51.6313 7.8501 51.6563 7.9501C51.6813 8.0501 51.6844 8.15322 51.6656 8.25947C51.6469 8.36572 51.5875 8.4626 51.4875 8.5501L48.4125 11.2313L49.3313 15.2063C49.3563 15.3313 49.3469 15.4438 49.3031 15.5438C49.2594 15.6438 49.1938 15.7251 49.1063 15.7876C49.0188 15.8501 48.9188 15.8845 48.8063 15.8907C48.6938 15.897 48.5875 15.8688 48.4875 15.8063L45 13.7063Z" fill="#72B3EA"/>
<path d="M63 13.7063L59.5125 15.8063C59.4125 15.8688 59.3063 15.897 59.1938 15.8907C59.0813 15.8845 58.9813 15.8501 58.8938 15.7876C58.8063 15.7251 58.7406 15.6438 58.6969 15.5438C58.6531 15.4438 58.6438 15.3313 58.6688 15.2063L59.5875 11.2313L56.5125 8.5501C56.4125 8.4626 56.3531 8.36572 56.3344 8.25947C56.3156 8.15322 56.3188 8.0501 56.3438 7.9501C56.3688 7.8501 56.425 7.76572 56.5125 7.69697C56.6 7.62822 56.7063 7.5876 56.8313 7.5751L60.9 7.21885L62.475 3.46885C62.525 3.35635 62.6 3.27197 62.7 3.21572C62.8 3.15947 62.9 3.13135 63 3.13135C63.1 3.13135 63.2 3.15947 63.3 3.21572C63.4 3.27197 63.475 3.35635 63.525 3.46885L65.1 7.21885L69.1688 7.5751C69.2938 7.5876 69.4 7.62822 69.4875 7.69697C69.575 7.76572 69.6313 7.8501 69.6563 7.9501C69.6813 8.0501 69.6844 8.15322 69.6656 8.25947C69.6469 8.36572 69.5875 8.4626 69.4875 8.5501L66.4125 11.2313L67.3313 15.2063C67.3563 15.3313 67.3469 15.4438 67.3031 15.5438C67.2594 15.6438 67.1938 15.7251 67.1063 15.7876C67.0188 15.8501 66.9188 15.8845 66.8063 15.8907C66.6938 15.897 66.5875 15.8688 66.4875 15.8063L63 13.7063Z" fill="#72B3EA"/>
<path d="M81 13.7063L77.5125 15.8063C77.4125 15.8688 77.3063 15.897 77.1938 15.8907C77.0813 15.8845 76.9813 15.8501 76.8938 15.7876C76.8063 15.7251 76.7406 15.6438 76.6969 15.5438C76.6531 15.4438 76.6438 15.3313 76.6688 15.2063L77.5875 11.2313L74.5125 8.5501C74.4125 8.4626 74.3531 8.36572 74.3344 8.25947C74.3156 8.15322 74.3188 8.0501 74.3438 7.9501C74.3688 7.8501 74.425 7.76572 74.5125 7.69697C74.6 7.62822 74.7063 7.5876 74.8313 7.5751L78.9 7.21885L80.475 3.46885C80.525 3.35635 80.6 3.27197 80.7 3.21572C80.8 3.15947 80.9 3.13135 81 3.13135C81.1 3.13135 81.2 3.15947 81.3 3.21572C81.4 3.27197 81.475 3.35635 81.525 3.46885L83.1 7.21885L87.1688 7.5751C87.2938 7.5876 87.4 7.62822 87.4875 7.69697C87.575 7.76572 87.6313 7.8501 87.6563 7.9501C87.6813 8.0501 87.6844 8.15322 87.6656 8.25947C87.6469 8.36572 87.5875 8.4626 87.4875 8.5501L84.4125 11.2313L85.3313 15.2063C85.3563 15.3313 85.3469 15.4438 85.3031 15.5438C85.2594 15.6438 85.1938 15.7251 85.1063 15.7876C85.0188 15.8501 84.9188 15.8845 84.8063 15.8907C84.6938 15.897 84.5875 15.8688 84.4875 15.8063L81 13.7063Z" fill="#72B3EA"/>
</svg>
