<svg width="231" height="16" viewBox="0 0 231 16" fill="none" xmlns="http://www.w3.org/2000/svg">
<path fill-rule="evenodd" clip-rule="evenodd" d="M0 11H6.13636V5H0V11ZM18.5 11H30.8636V5H18.5V11ZM43.2273 11H55.5909V5H43.2273V11ZM67.9545 11H80.3182V5H67.9545V11ZM92.6818 11H105.045V5H92.6818V11ZM117.409 11H129.773V5H117.409V11ZM142.136 11H154.5V5H142.136V11ZM166.864 11H179.227V5H166.864V11ZM191.591 11H203.954V5H191.591V11ZM216.318 11H222.5V5H216.318V11Z" fill="#72B3EA"/>
<circle cx="49.5" cy="8" r="8" fill="#72B3EA"/>
<circle cx="98.5" cy="8" r="8" fill="#72B3EA"/>
<circle cx="147.5" cy="8" r="8" fill="#72B3EA"/>
<circle cx="222.5" cy="8" r="8" fill="#72B3EA"/>
</svg>
